<svg width="24" height="24" viewBox="0 0 24 24" fill="none" xmlns="http://www.w3.org/2000/svg">
<path d="M19 9.00002C19.0004 7.79492 18.6898 6.61012 18.098 5.5603C17.5063 4.51048 16.6536 3.6312 15.6224 3.00758C14.5912 2.38397 13.4165 2.03713 12.2119 2.00065C11.0074 1.96416 9.81381 2.23927 8.74676 2.79934C7.67972 3.35941 6.77533 4.18546 6.12116 5.19755C5.46698 6.20963 5.08517 7.37346 5.01268 8.57638C4.94019 9.77929 5.17948 10.9805 5.70739 12.0639C6.23529 13.1472 7.03393 14.0759 8.026 14.76L5 20L7.256 20.093L8.464 22L11.93 15.996C11.954 15.996 11.976 16 12 16C12.024 16 12.046 15.997 12.07 15.996L15.536 22L16.768 20.134L19 20L15.974 14.76C16.9076 14.1172 17.6709 13.257 18.198 12.2536C18.7252 11.2501 19.0004 10.1335 19 9.00002ZM7 9.00002C7 8.01111 7.29325 7.04441 7.84265 6.22217C8.39206 5.39992 9.17295 4.75906 10.0866 4.38062C11.0002 4.00218 12.0055 3.90316 12.9755 4.09609C13.9454 4.28902 14.8363 4.76522 15.5355 5.46448C16.2348 6.16375 16.711 7.05466 16.9039 8.02456C17.0969 8.99447 16.9978 9.9998 16.6194 10.9134C16.241 11.8271 15.6001 12.608 14.7779 13.1574C13.9556 13.7068 12.9889 14 12 14C10.6739 14 9.40215 13.4732 8.46447 12.5356C7.52679 11.5979 7 10.3261 7 9.00002V9.00002Z" fill="black"/>
<path d="M12 12C13.6569 12 15 10.6569 15 9C15 7.34315 13.6569 6 12 6C10.3431 6 9 7.34315 9 9C9 10.6569 10.3431 12 12 12Z" fill="black"/>
</svg>
