<svg width="24" height="25" viewBox="0 0 24 25" fill="none" xmlns="http://www.w3.org/2000/svg">
<path d="M21.3333 3.83334H2.66667C1.95942 3.83334 1.28115 4.11429 0.781049 4.61439C0.280952 5.11449 0 5.79277 0 6.50001L0 12.5H24V6.50001C24 5.79277 23.719 5.11449 23.219 4.61439C22.7189 4.11429 22.0406 3.83334 21.3333 3.83334Z" fill="#005BBB"/>
<path d="M24 18.5C24 19.2072 23.719 19.8855 23.219 20.3856C22.7189 20.8857 22.0406 21.1667 21.3333 21.1667H2.66667C1.95942 21.1667 1.28115 20.8857 0.781049 20.3856C0.280952 19.8855 0 19.2072 0 18.5V12.5H24V18.5Z" fill="#FFD500"/>
</svg>
