<svg width="182" height="46" viewBox="0 0 182 46" fill="none" xmlns="http://www.w3.org/2000/svg">
<path fill-rule="evenodd" clip-rule="evenodd" d="M60.6667 3.06667H2.6V42.9333H60.6667V3.06667ZM0 0.466675V45.5333H63.2667V0.466675H0Z" fill="black"/>
<path d="M22.634 35.442C19.0527 35.442 16.0833 34.2633 13.726 31.906C11.3687 29.526 10.19 26.5907 10.19 23.1C10.19 19.6093 11.3687 16.6853 13.726 14.328C16.0833 11.948 19.0527 10.758 22.634 10.758C24.7873 10.758 26.7707 11.268 28.584 12.288C30.42 13.308 31.848 14.6907 32.868 16.436L29.468 18.408C28.8333 17.2293 27.904 16.3 26.68 15.62C25.4787 14.9173 24.13 14.566 22.634 14.566C20.0953 14.566 18.0327 15.3707 16.446 16.98C14.882 18.5893 14.1 20.6293 14.1 23.1C14.1 25.5707 14.882 27.6107 16.446 29.22C18.0327 30.8293 20.0953 31.634 22.634 31.634C24.13 31.634 25.49 31.294 26.714 30.614C27.938 29.9113 28.856 28.9707 29.468 27.792L32.868 29.73C31.8707 31.4753 30.454 32.8693 28.618 33.912C26.8047 34.932 24.81 35.442 22.634 35.442ZM43.8691 35.442C41.3758 35.442 39.2565 34.5807 37.5111 32.858C35.7658 31.1353 34.8931 29.016 34.8931 26.5C34.8931 23.984 35.7658 21.8647 37.5111 20.142C39.2565 18.4193 41.3758 17.558 43.8691 17.558C46.3851 17.558 48.5045 18.4193 50.2271 20.142C51.9725 21.8647 52.8451 23.984 52.8451 26.5C52.8451 29.016 51.9725 31.1353 50.2271 32.858C48.5045 34.5807 46.3851 35.442 43.8691 35.442ZM40.0951 30.342C41.1151 31.362 42.3731 31.872 43.8691 31.872C45.3651 31.872 46.6231 31.362 47.6431 30.342C48.6631 29.322 49.1731 28.0413 49.1731 26.5C49.1731 24.9587 48.6631 23.678 47.6431 22.658C46.6231 21.638 45.3651 21.128 43.8691 21.128C42.3731 21.128 41.1151 21.638 40.0951 22.658C39.0751 23.678 38.5651 24.9587 38.5651 26.5C38.5651 28.0413 39.0751 29.322 40.0951 30.342Z" fill="black"/>
<path d="M85.15 13.444H74.1V22.216H84.64V24.46H74.1V35H71.72V11.2H85.15V13.444ZM91.156 13.92C90.8387 14.2373 90.4534 14.396 90 14.396C89.5467 14.396 89.1614 14.2373 88.844 13.92C88.5267 13.6027 88.368 13.2173 88.368 12.764C88.368 12.3107 88.5267 11.9253 88.844 11.608C89.1614 11.2907 89.5467 11.132 90 11.132C90.4534 11.132 90.8387 11.2907 91.156 11.608C91.4734 11.9253 91.632 12.3107 91.632 12.764C91.632 13.2173 91.4734 13.6027 91.156 13.92ZM88.878 35V18H91.122V35H88.878ZM103.84 17.592C105.903 17.592 107.523 18.2267 108.702 19.496C109.903 20.7427 110.504 22.4313 110.504 24.562V35H108.26V24.562C108.26 23.0433 107.852 21.8647 107.036 21.026C106.243 20.1873 105.109 19.768 103.636 19.768C102.004 19.768 100.678 20.2893 99.6579 21.332C98.6379 22.352 98.1279 23.9387 98.1279 26.092V35H95.8839V18H98.1279V20.652C99.3972 18.612 101.301 17.592 103.84 17.592ZM129.463 11.2H131.707V35H129.463V31.668C127.899 34.1613 125.61 35.408 122.595 35.408C120.17 35.408 118.096 34.5467 116.373 32.824C114.673 31.1013 113.823 28.9933 113.823 26.5C113.823 24.0067 114.673 21.8987 116.373 20.176C118.096 18.4533 120.17 17.592 122.595 17.592C125.61 17.592 127.899 18.8387 129.463 21.332V11.2ZM118.005 31.294C119.297 32.586 120.884 33.232 122.765 33.232C124.646 33.232 126.233 32.586 127.525 31.294C128.817 29.9793 129.463 28.3813 129.463 26.5C129.463 24.6187 128.817 23.032 127.525 21.74C126.233 20.4253 124.646 19.768 122.765 19.768C120.884 19.768 119.297 20.4253 118.005 21.74C116.713 23.032 116.067 24.6187 116.067 26.5C116.067 28.3813 116.713 29.9793 118.005 31.294ZM144.312 17.592C146.828 17.592 148.857 18.4873 150.398 20.278C151.962 22.046 152.744 24.1427 152.744 26.568C152.744 26.8173 152.721 27.1687 152.676 27.622H137.75C137.977 29.3447 138.702 30.716 139.926 31.736C141.173 32.7333 142.703 33.232 144.516 33.232C145.808 33.232 146.919 32.9713 147.848 32.45C148.8 31.906 149.514 31.2033 149.99 30.342L151.962 31.498C151.214 32.6993 150.194 33.6513 148.902 34.354C147.61 35.0567 146.137 35.408 144.482 35.408C141.807 35.408 139.631 34.5693 137.954 32.892C136.277 31.2147 135.438 29.084 135.438 26.5C135.438 23.9613 136.265 21.842 137.92 20.142C139.575 18.442 141.705 17.592 144.312 17.592ZM144.312 19.768C142.544 19.768 141.059 20.3007 139.858 21.366C138.679 22.4087 137.977 23.7687 137.75 25.446H150.432C150.205 23.6553 149.514 22.2613 148.358 21.264C147.202 20.2667 145.853 19.768 144.312 19.768ZM158.558 20.822C159.6 18.7593 161.391 17.728 163.93 17.728V19.904C162.388 19.904 161.108 20.3573 160.088 21.264C159.068 22.1707 158.558 23.5987 158.558 25.548V35H156.314V18H158.558V20.822Z" fill="black"/>
</svg>
